<?xml version="1.0" standalone="no"?>
<!DOCTYPE svg PUBLIC "-//W3C//DTD SVG 20010904//EN"
 "http://www.w3.org/TR/2001/REC-SVG-20010904/DTD/svg10.dtd">
<svg version="1.0" xmlns="http://www.w3.org/2000/svg"
 width="252.000000pt" height="80.000000pt" viewBox="0 0 252.000000 80.000000"
 preserveAspectRatio="xMidYMid meet">

<g transform="translate(0.000000,80.000000) scale(0.100000,-0.100000)"
fill="#000000" stroke="none">
<path d="M774 766 c-32 -14 -44 -33 -44 -70 0 -37 26 -62 89 -85 63 -23 83
-49 61 -76 -17 -20 -99 -19 -128 1 -21 14 -22 14 -22 -11 0 -31 30 -45 99 -45
66 0 101 28 101 79 0 45 -19 65 -86 90 -56 22 -74 43 -58 69 15 23 66 27 103
7 30 -15 31 -15 31 9 0 41 -83 59 -146 32z"/>
<path d="M2030 773 c-34 -13 -50 -37 -50 -74 0 -43 26 -70 88 -90 49 -16 62
-27 62 -55 0 -17 -7 -25 -25 -30 -27 -7 -79 -2 -107 11 -14 5 -18 2 -18 -14 0
-28 29 -41 95 -41 46 0 60 4 80 25 30 29 33 74 8 103 -10 12 -45 32 -78 45
-64 25 -81 50 -49 74 23 17 62 16 97 -1 26 -14 27 -14 27 9 0 13 -4 27 -10 30
-15 9 -103 15 -120 8z"/>
<path d="M2335 768 c-30 -16 -45 -39 -45 -68 0 -39 25 -66 80 -86 63 -22 89
-48 74 -72 -15 -24 -98 -28 -130 -7 -23 15 -24 15 -24 -10 0 -31 31 -45 99
-45 66 0 101 27 101 80 0 44 -26 71 -88 91 -38 12 -72 36 -72 50 0 4 7 15 16
23 20 20 66 20 104 1 29 -15 30 -15 30 9 0 18 -8 27 -31 35 -40 14 -88 14
-114 -1z"/>
<path d="M30 625 l0 -145 75 0 c84 0 118 12 134 47 16 35 14 60 -9 83 -19 19
-19 22 -5 43 22 31 19 64 -10 92 -22 22 -32 25 -105 25 l-80 0 0 -145z m152
99 c12 -8 10 -48 -4 -62 -7 -7 -31 -12 -55 -12 l-43 0 0 38 c0 21 3 42 8 46 7
8 77 0 94 -10z m6 -126 c15 -15 15 -51 0 -66 -7 -7 -34 -12 -60 -12 l-48 0 0
45 0 45 48 0 c26 0 53 -5 60 -12z"/>
<path d="M360 688 c1 -161 29 -208 125 -208 97 0 126 49 124 208 -2 79 -3 82
-25 82 -24 0 -24 -2 -24 -96 0 -124 -15 -154 -75 -154 -60 0 -75 30 -75 154 0
96 0 96 -25 96 -25 0 -25 -1 -25 -82z"/>
<path d="M1070 625 l0 -145 25 0 25 0 0 145 0 145 -25 0 -25 0 0 -145z"/>
<path d="M1270 625 l0 -145 25 0 c24 0 24 2 27 94 l3 95 103 -95 102 -96 0
146 0 146 -25 0 c-24 0 -24 -2 -27 -91 l-3 -90 -97 90 c-53 50 -99 91 -102 91
-3 0 -6 -65 -6 -145z"/>
<path d="M1670 625 l0 -145 90 0 c83 0 90 1 90 20 0 18 -7 20 -65 20 l-65 0 0
50 0 50 60 0 c53 0 60 2 60 20 0 18 -7 20 -60 20 l-60 0 0 35 0 35 65 0 c58 0
65 2 65 20 0 19 -7 20 -90 20 l-90 0 0 -145z"/>
<path d="M885 309 c-38 -11 -55 -34 -55 -74 0 -39 28 -65 93 -89 54 -20 73
-44 53 -71 -10 -13 -23 -16 -62 -13 -27 3 -57 8 -66 12 -14 6 -18 3 -18 -13 0
-28 29 -41 95 -41 46 0 60 4 80 25 28 27 32 70 10 101 -7 12 -41 31 -73 43
-68 24 -84 47 -52 73 27 22 40 22 87 3 19 -8 36 -15 38 -15 1 0 1 10 0 23 -1
15 -11 25 -36 34 -40 14 -54 14 -94 2z"/>
<path d="M240 165 c0 -144 0 -145 23 -145 22 0 22 1 22 145 0 144 0 145 -22
145 -23 0 -23 -1 -23 -145z"/>
<path d="M440 166 c0 -139 1 -146 20 -146 19 0 20 7 20 95 0 52 4 95 9 95 5 0
11 -3 13 -7 2 -5 45 -48 96 -98 l92 -90 0 148 c0 140 -1 147 -20 147 -19 0
-20 -7 -20 -90 0 -50 -3 -90 -6 -90 -4 0 -51 41 -105 91 l-99 91 0 -146z"/>
<path d="M1170 165 l0 -145 25 0 25 0 0 145 0 145 -25 0 -25 0 0 -145z"/>
<path d="M1370 165 l0 -145 78 0 c56 0 87 5 112 18 96 51 92 217 -5 258 -20 8
-67 14 -110 14 l-75 0 0 -145z m184 79 c21 -22 26 -36 26 -79 0 -47 -4 -56
-31 -79 -24 -20 -41 -26 -80 -26 l-49 0 0 105 0 105 54 0 c44 0 58 -4 80 -26z"/>
<path d="M1748 165 l3 -145 90 0 c82 0 89 1 89 20 0 18 -7 20 -70 20 l-70 0 0
50 0 50 60 0 c53 0 60 2 60 20 0 18 -7 20 -60 20 l-60 0 0 35 0 34 67 3 c55 2
68 6 71 21 3 15 -6 17 -90 17 l-93 0 3 -145z"/>
<path d="M2080 165 l0 -145 25 0 c24 0 25 3 25 60 0 52 2 60 19 60 11 0 43
-26 74 -60 41 -46 60 -60 82 -60 28 0 27 1 -25 56 l-53 56 31 25 c27 21 32 31
32 68 0 66 -30 85 -131 85 l-79 0 0 -145z m154 89 c36 -36 6 -74 -60 -74 l-44
0 0 45 0 45 44 0 c27 0 51 -6 60 -16z"/>
</g>
</svg>
