<?xml version="1.0" standalone="no"?>
<!DOCTYPE svg PUBLIC "-//W3C//DTD SVG 20010904//EN"
 "http://www.w3.org/TR/2001/REC-SVG-20010904/DTD/svg10.dtd">
<svg version="1.0" xmlns="http://www.w3.org/2000/svg"
 width="306.000000pt" height="80.000000pt" viewBox="0 0 306.000000 80.000000"
 preserveAspectRatio="xMidYMid meet">

<g transform="translate(0.000000,80.000000) scale(0.100000,-0.100000)"
fill="#000000" stroke="none">
<path d="M1593 742 c-53 -11 -83 -21 -83 -29 0 -7 9 -13 21 -13 43 0 49 -46
49 -354 0 -213 3 -287 12 -292 7 -4 62 -10 123 -12 99 -4 117 -2 163 18 68 29
115 84 136 159 20 72 20 123 0 191 -37 125 -153 177 -276 125 -17 -7 -18 2
-18 109 0 134 13 124 -127 98z m218 -252 c39 -22 63 -88 63 -180 0 -106 -16
-164 -60 -208 -25 -25 -40 -33 -61 -30 l-28 3 -3 200 c-1 110 0 205 2 212 6
16 60 17 87 3z"/>
<path d="M130 735 c0 -8 9 -15 19 -15 11 0 33 -11 48 -24 l28 -24 0 -265 c0
-291 -4 -311 -59 -325 -16 -4 -31 -13 -34 -20 -3 -9 41 -12 177 -12 154 0 181
2 181 15 0 8 -9 15 -21 15 -60 0 -76 38 -81 190 l-3 105 36 3 c56 5 88 -13
107 -58 31 -73 42 -52 42 80 0 122 -9 147 -32 93 -24 -57 -47 -73 -106 -73
l-55 0 6 68 c4 37 7 100 7 140 l0 72 79 0 c98 0 134 -21 171 -97 16 -33 31
-52 43 -53 15 0 17 11 17 100 l0 100 -285 0 c-247 0 -285 -2 -285 -15z"/>
<path d="M762 534 c-125 -62 -171 -246 -97 -382 41 -76 90 -106 183 -111 97
-4 144 10 197 63 57 57 79 124 73 221 -10 150 -96 235 -237 235 -52 0 -79 -6
-119 -26z m139 -14 c37 -21 61 -87 66 -189 9 -166 -25 -265 -90 -259 -66 6
-103 117 -94 274 9 148 50 210 118 174z"/>
<path d="M1270 550 c-19 -4 -61 -13 -92 -20 -32 -6 -58 -14 -58 -18 0 -4 15
-14 33 -22 29 -14 33 -20 40 -75 10 -73 1 -289 -13 -315 -5 -10 -20 -20 -32
-22 -12 -2 -23 -9 -26 -15 -3 -10 31 -13 147 -13 128 0 151 2 151 15 0 9 -9
15 -24 15 -51 0 -56 18 -56 186 l0 154 28 11 c15 6 41 8 57 5 69 -13 66 -14
90 49 13 33 21 63 18 68 -2 4 -23 7 -46 7 -51 0 -100 -28 -127 -72 l-20 -33 0
53 c0 57 -1 58 -70 42z"/>
<path d="M2215 541 c-50 -22 -108 -86 -126 -137 -8 -22 -14 -73 -14 -114 0
-66 5 -83 31 -130 44 -77 103 -113 196 -118 82 -5 141 14 183 58 35 37 27 48
-19 26 -38 -18 -102 -21 -139 -7 -55 21 -105 100 -106 169 l-1 32 151 0 151 0
-7 48 c-14 92 -51 152 -112 178 -46 20 -140 17 -188 -5z m119 -26 c18 -19 36
-78 36 -122 l0 -33 -75 0 c-84 0 -83 -1 -64 75 12 47 48 95 73 95 8 0 21 -7
30 -15z"/>
<path d="M2654 541 c-53 -24 -86 -71 -91 -130 -7 -70 22 -106 124 -156 98 -48
104 -53 105 -95 1 -25 -6 -40 -26 -57 -52 -45 -121 -18 -168 64 -16 29 -34 50
-39 47 -5 -3 -9 -36 -9 -74 0 -87 8 -93 145 -98 89 -3 105 -1 144 20 60 31 83
66 88 130 6 79 -16 107 -127 163 -99 50 -121 75 -104 123 5 14 22 33 37 42 25
14 30 13 65 -5 24 -13 46 -36 62 -67 14 -27 28 -48 33 -48 4 0 7 31 7 70 l0
69 -37 10 c-61 17 -163 13 -209 -8z"/>
</g>
</svg>
