<?xml version="1.0" standalone="no"?>
<!DOCTYPE svg PUBLIC "-//W3C//DTD SVG 20010904//EN"
 "http://www.w3.org/TR/2001/REC-SVG-20010904/DTD/svg10.dtd">
<svg version="1.0" xmlns="http://www.w3.org/2000/svg"
 width="562.000000pt" height="80.000000pt" viewBox="0 0 562.000000 80.000000"
 preserveAspectRatio="xMidYMid meet">

<g transform="translate(0.000000,80.000000) scale(0.100000,-0.100000)"
fill="#000000" stroke="none">
<path d="M0 665 l0 -135 135 0 135 0 0 -265 0 -265 125 0 125 0 0 265 0 265
135 0 135 0 0 135 0 135 -395 0 -395 0 0 -135z"/>
<path d="M1059 683 c0 -65 -2 -126 -4 -135 -3 -17 14 -18 256 -18 l259 0 0
135 0 135 -255 0 -255 0 -1 -117z"/>
<path d="M5360 594 l-55 -22 -3 -216 -2 -216 59 0 60 0 3 116 c3 99 6 119 21
128 12 8 22 8 35 0 14 -9 17 -29 20 -128 l3 -116 59 0 60 0 0 125 c0 139 -11
182 -54 211 -26 16 -87 16 -128 -1 -15 -6 -17 2 -20 67 l-3 74 -55 -22z"/>
<path d="M3018 588 l-48 -20 0 -214 0 -214 55 0 55 0 0 106 c0 115 9 144 43
144 41 0 47 -17 47 -137 l0 -113 56 0 55 0 -3 144 c-3 137 -4 146 -27 170 -32
34 -78 42 -126 22 -20 -9 -39 -16 -41 -16 -2 0 -4 34 -4 75 0 41 -3 75 -7 74
-5 0 -29 -10 -55 -21z"/>
<path d="M3506 596 c-89 -33 -135 -98 -143 -200 -13 -159 74 -266 216 -266 61
1 122 29 157 75 l28 37 -25 19 c-13 10 -37 24 -52 30 -26 11 -31 9 -57 -20
-65 -71 -132 -20 -131 102 0 77 22 111 74 115 30 3 39 -1 53 -25 10 -15 19
-30 21 -32 3 -5 95 29 107 40 15 14 -41 95 -79 113 -50 24 -123 29 -169 12z"/>
<path d="M1860 543 l0 -53 65 0 65 0 0 -175 0 -175 60 0 60 0 0 175 0 175 65
0 65 0 0 50 0 49 -190 3 -190 3 0 -52z"/>
<path d="M800 260 l0 -260 385 0 385 0 0 130 0 130 -260 0 -260 0 0 130 0 130
-125 0 -125 0 0 -260z"/>
<path d="M2335 480 c-110 -34 -140 -217 -51 -305 38 -39 89 -50 159 -35 80 16
86 22 63 65 -14 26 -24 34 -35 29 -9 -4 -37 -9 -62 -12 -40 -3 -49 0 -63 19
-9 13 -16 27 -16 31 0 5 48 8 106 8 l106 0 -7 53 c-12 91 -56 142 -130 151
-22 3 -54 1 -70 -4z m85 -90 c31 -31 24 -40 -35 -40 -47 0 -54 2 -48 18 7 21
32 42 50 42 7 0 22 -9 33 -20z"/>
<path d="M2710 480 c-43 -10 -85 -56 -99 -107 -44 -158 76 -285 213 -225 37
17 66 45 66 66 0 2 -13 14 -30 26 l-29 21 -30 -22 c-40 -29 -67 -19 -82 32 -9
30 -9 48 0 78 15 50 43 62 77 31 l23 -23 36 27 c28 22 33 31 25 45 -23 44
-102 68 -170 51z"/>
<path d="M3986 483 c-4 -4 -40 -6 -81 -4 l-75 2 0 -170 0 -171 60 0 60 0 0 94
c0 119 9 146 49 146 16 0 33 -4 36 -10 13 -21 23 -8 35 40 16 67 10 80 -38 80
-21 0 -42 -3 -46 -7z"/>
<path d="M4706 483 c-3 -4 -42 -6 -86 -4 l-80 2 0 -171 0 -170 60 0 60 0 0 99
c0 110 10 151 38 151 36 0 42 -20 42 -137 l0 -113 60 0 60 0 0 131 c0 145 -12
187 -56 208 -28 12 -87 15 -98 4z"/>
<path d="M5020 472 c-64 -32 -100 -115 -85 -202 18 -105 122 -167 220 -130 25
10 75 56 75 70 0 4 -16 20 -36 35 l-36 27 -15 -21 c-11 -16 -23 -21 -46 -19
-28 3 -33 8 -41 40 -14 57 2 112 35 116 15 2 32 -5 43 -17 19 -21 19 -21 57
10 37 29 38 31 23 54 -34 52 -128 70 -194 37z"/>
<path d="M4140 355 c0 -139 11 -182 54 -211 20 -13 37 -15 74 -10 26 4 80 7
120 6 l72 -1 0 170 0 171 -60 0 -59 0 -3 -116 c-3 -99 -6 -119 -20 -128 -13
-8 -23 -8 -35 0 -15 9 -18 29 -21 128 l-3 116 -59 0 -60 0 0 -125z"/>
</g>
</svg>
