<?xml version="1.0" standalone="no"?>
<!DOCTYPE svg PUBLIC "-//W3C//DTD SVG 20010904//EN"
 "http://www.w3.org/TR/2001/REC-SVG-20010904/DTD/svg10.dtd">
<svg version="1.0" xmlns="http://www.w3.org/2000/svg"
 width="609.000000pt" height="80.000000pt" viewBox="0 0 609.000000 80.000000"
 preserveAspectRatio="xMidYMid meet">

<g transform="translate(0.000000,80.000000) scale(0.100000,-0.100000)"
fill="#000000" stroke="none">
<path d="M368 786 c36 -17 39 -27 16 -51 -19 -18 -39 -16 -154 22 -95 31 -144
27 -182 -17 -36 -39 -37 -88 -4 -119 l24 -23 -1 32 c-3 55 15 57 157 20 l126
-33 0 -46 c0 -34 -6 -51 -25 -71 l-25 -26 25 -24 c22 -21 25 -32 25 -91 0 -80
-9 -89 -87 -89 -46 0 -114 26 -120 46 -1 5 27 22 62 38 l65 29 0 113 c0 63 -2
114 -4 114 -2 0 -36 -14 -76 -31 -40 -17 -75 -28 -78 -25 -3 3 14 24 37 46 49
47 34 52 -30 12 -56 -37 -73 -56 -100 -117 -17 -38 -20 -60 -16 -102 23 -227
323 -290 422 -90 36 74 31 106 -8 49 -46 -65 -57 -62 -57 14 0 58 3 67 27 88
l27 23 -27 18 c-24 15 -27 24 -27 71 0 48 2 54 24 60 38 9 70 50 70 89 0 45
-28 74 -80 81 l-39 5 33 -15z m-210 -438 c-33 -20 -54 9 -65 88 -8 63 2 92 40
107 l32 14 3 -100 c2 -74 -1 -103 -10 -109z"/>
<path d="M4638 791 c31 -14 39 -41 17 -57 -20 -15 -27 -14 -155 23 -100 28
-135 25 -175 -17 -36 -38 -39 -90 -8 -122 l21 -21 -1 34 -2 34 50 -1 c28 -1
92 -12 143 -25 l92 -24 0 -49 c0 -43 -4 -54 -27 -73 l-28 -23 28 -21 c25 -19
27 -26 27 -94 0 -68 -2 -74 -22 -81 -57 -19 -162 2 -183 36 -3 5 23 24 60 42
l65 32 0 113 c0 62 -2 113 -4 113 -2 0 -36 -14 -76 -31 -40 -17 -74 -28 -77
-25 -3 3 12 24 34 46 45 44 41 50 -16 20 -74 -37 -131 -127 -131 -205 0 -80
61 -173 134 -206 44 -20 139 -25 179 -10 64 25 136 119 137 180 0 22 -3 20
-28 -15 -16 -21 -36 -45 -45 -53 -16 -12 -17 -8 -17 58 0 65 2 72 25 87 l26
17 -26 27 c-19 20 -25 36 -25 72 0 41 3 47 26 52 41 11 74 50 74 89 0 42 -32
75 -80 82 -30 5 -31 4 -12 -4z m-195 -338 c-6 -103 -12 -120 -37 -110 -24 9
-36 50 -36 117 0 49 4 61 22 74 12 9 30 16 39 16 16 0 17 -10 12 -97z"/>
<path d="M547 747 c-52 -37 -56 -42 -42 -57 12 -14 15 -52 15 -214 0 -193 -1
-198 -22 -218 -13 -11 -17 -16 -10 -13 8 4 30 -6 53 -24 l39 -32 45 31 c46 32
57 44 30 34 -8 -4 -22 -1 -30 6 -22 18 -22 232 0 250 13 11 20 9 40 -10 24
-23 25 -27 25 -166 0 -79 -4 -154 -10 -168 -5 -14 -24 -35 -42 -47 l-33 -21
47 5 c62 6 95 29 119 80 15 35 19 66 19 184 0 124 2 143 18 153 15 10 14 10
-5 5 -15 -4 -31 3 -56 25 -19 16 -39 30 -43 30 -5 0 -27 -14 -49 -31 l-40 -30
-5 134 -5 135 -58 -41z"/>
<path d="M1732 760 c-14 -23 -61 -27 -91 -8 -17 10 -25 6 -65 -38 -45 -49 -63
-83 -27 -50 18 17 22 17 43 2 12 -9 30 -16 40 -16 16 0 18 -12 18 -137 l0
-138 -24 40 c-162 277 -199 336 -215 345 -56 30 -132 -18 -130 -82 0 -30 1
-31 9 -10 12 29 55 30 70 2 6 -12 10 -42 8 -67 -3 -42 -6 -47 -32 -54 -58 -16
-83 -68 -56 -118 14 -28 39 -34 32 -9 -5 20 11 38 36 38 8 0 12 -20 12 -69 l0
-69 -34 -6 c-70 -13 -110 -104 -68 -155 17 -22 82 -46 82 -31 0 4 -9 10 -21
13 -15 4 -20 12 -17 33 5 41 30 52 74 31 36 -18 37 -18 61 5 14 13 34 37 46
53 11 17 15 25 8 19 -8 -8 -25 -4 -61 14 l-50 25 0 156 c1 101 4 151 10 141 5
-8 62 -107 127 -219 65 -113 124 -206 131 -209 9 -3 12 48 12 227 0 193 2 231
14 231 42 0 97 82 79 115 -7 12 -11 11 -21 -5z"/>
<path d="M3842 745 c-50 -34 -52 -37 -37 -58 12 -17 15 -57 15 -211 0 -183 -1
-191 -22 -214 -13 -14 -17 -22 -10 -18 7 4 27 -5 49 -23 35 -29 38 -29 63 -14
14 8 37 24 51 35 18 15 19 18 5 14 -43 -14 -46 2 -46 270 0 140 -3 254 -8 254
-4 0 -31 -16 -60 -35z"/>
<path d="M2709 731 c-16 -16 -29 -38 -29 -47 0 -16 2 -15 16 4 37 53 64 15 64
-92 0 -70 -2 -76 -21 -76 -26 0 -79 -52 -79 -77 0 -20 26 -63 39 -63 4 0 7 10
7 23 -1 17 5 23 27 25 l27 3 0 -98 0 -98 -35 -28 c-30 -24 -35 -34 -35 -71 0
-85 82 -115 223 -82 38 9 82 16 98 16 34 0 48 -23 30 -51 -14 -23 -9 -24 29
-4 35 18 57 74 41 104 -29 54 -77 61 -227 35 -113 -21 -144 -15 -144 26 0 19
7 33 19 40 27 14 95 12 166 -5 93 -22 141 -20 170 10 l25 24 0 217 c0 212 1
218 23 243 l22 25 -26 -16 c-26 -16 -27 -16 -55 13 -15 16 -32 29 -37 29 -5 0
-31 -16 -58 -35 l-48 -36 -4 38 c-2 21 -4 -83 -5 -230 l-2 -268 -27 3 -28 3
-6 115 c-4 63 -7 172 -8 241 -1 117 -2 127 -24 147 -35 33 -91 30 -128 -7z
m286 -57 c22 -14 25 -23 25 -79 0 -71 -14 -91 -55 -81 -24 6 -25 9 -25 85 0
97 7 107 55 75z m25 -200 c0 -30 -2 -31 -40 -31 -38 0 -40 1 -40 31 0 29 2 31
40 31 38 1 40 0 40 -31z m-16 -50 c13 -5 16 -22 16 -83 0 -87 -16 -121 -56
-121 -24 0 -24 1 -24 98 0 54 3 102 7 105 8 9 36 9 57 1z"/>
<path d="M4809 722 l-34 -31 33 -33 32 -33 32 33 33 32 -31 31 -31 31 -34 -30z"/>
<path d="M2038 632 c-43 -39 -43 -81 0 -125 32 -33 32 -33 32 -141 0 -92 -3
-111 -17 -123 -17 -13 -17 -14 2 -5 15 8 27 4 58 -20 l38 -30 40 26 40 27 48
-27 48 -27 86 49 87 49 0 112 c0 102 2 114 20 125 11 7 20 17 20 22 0 6 -5 5
-12 -2 -8 -8 -18 -5 -40 13 -16 14 -33 25 -36 25 -4 0 -22 -14 -40 -31 -31
-28 -33 -32 -18 -48 13 -14 16 -42 16 -134 0 -64 -3 -117 -7 -117 -5 0 -23 9
-40 20 l-33 20 0 103 c0 57 5 108 10 113 7 7 -1 21 -24 43 l-34 33 -36 -28
c-41 -33 -42 -37 -21 -54 12 -10 15 -38 15 -131 0 -80 -4 -119 -11 -119 -6 0
-24 9 -39 20 -28 20 -28 22 -32 141 l-3 120 -42 35 c-47 39 -51 49 -26 76 28
31 -11 23 -49 -10z"/>
<path d="M5893 546 l-73 -41 0 -54 c0 -46 4 -60 26 -82 l27 -28 -27 -31 c-34
-41 -43 -77 -25 -109 19 -34 38 -38 32 -7 -4 21 0 26 21 32 17 4 35 0 52 -11
25 -16 27 -15 95 25 l69 41 0 57 c0 52 -3 59 -31 83 l-31 25 26 38 c27 40 38
112 14 88 -16 -16 -59 -15 -83 1 -18 12 -29 9 -92 -27z m109 -56 l43 0 -47
-47 c-46 -46 -47 -47 -68 -28 -15 14 -20 30 -20 71 l0 53 25 -24 c18 -19 35
-25 67 -25z m-24 -122 c7 -7 12 -37 12 -67 l0 -54 -26 24 c-19 18 -37 24 -70
24 -24 0 -44 3 -44 7 0 12 85 78 101 78 8 0 20 -5 27 -12z"/>
<path d="M945 536 l-80 -44 -3 -108 c-2 -85 -6 -112 -20 -128 -16 -18 -16 -18
6 -7 21 11 29 8 77 -28 l53 -40 77 61 c42 33 74 63 71 65 -3 3 -23 -8 -44 -25
l-39 -31 -42 31 c-60 47 -55 64 34 127 41 28 75 55 75 59 0 12 -70 112 -78
112 -4 0 -43 -20 -87 -44z m62 -65 l31 -50 -39 -25 -39 -26 0 80 c0 45 4 79 8
76 5 -3 22 -27 39 -55z"/>
<path d="M1818 537 l-78 -42 0 -111 c0 -90 -3 -113 -15 -118 -8 -3 -15 -11
-15 -18 0 -9 3 -9 12 0 17 17 18 16 77 -28 l54 -39 73 60 c91 74 103 96 19 33
l-30 -23 -43 35 c-23 20 -42 43 -42 53 0 9 33 39 80 70 l80 54 -17 26 c-9 14
-26 41 -37 58 -12 18 -25 33 -31 33 -5 -1 -45 -20 -87 -43z m59 -60 c34 -56
33 -61 -16 -90 l-31 -18 0 80 c0 45 3 81 8 81 4 0 21 -24 39 -53z"/>
<path d="M3280 537 l-75 -43 -3 -109 c-2 -90 -6 -113 -20 -124 -16 -13 -16
-13 2 -7 12 4 34 -5 66 -29 26 -19 51 -35 55 -35 4 0 42 21 86 47 l79 48 0
112 0 111 -49 36 c-27 20 -53 36 -57 36 -5 0 -43 -19 -84 -43z m55 -29 l35
-23 0 -118 c0 -127 3 -123 -52 -85 -28 19 -28 20 -28 134 0 63 2 114 5 114 3
0 21 -10 40 -22z"/>
<path d="M3543 549 c-24 -17 -43 -32 -43 -35 0 -3 5 -2 11 1 5 4 19 -1 30 -11
16 -15 19 -31 19 -120 0 -93 -2 -104 -20 -114 -22 -12 -28 -32 -6 -24 8 3 29
-8 48 -25 l35 -30 51 35 c51 34 71 55 33 35 -14 -8 -22 -6 -35 8 -13 14 -16
40 -16 130 l0 112 22 -15 c12 -9 31 -16 41 -16 25 0 67 45 67 72 0 20 -5 23
-40 23 -29 0 -47 -8 -68 -28 l-28 -27 -22 30 c-13 16 -26 30 -30 30 -4 -1 -26
-14 -49 -31z"/>
<path d="M3971 501 c-28 -44 -51 -83 -51 -86 0 -4 133 -208 146 -224 2 -2 22
8 44 23 l40 26 -80 120 c-82 122 -94 148 -62 135 48 -22 78 -17 105 15 15 17
27 40 27 51 0 17 -3 18 -21 8 -21 -11 -47 -9 -80 5 -13 6 -28 -12 -68 -73z"/>
<path d="M4783 552 c-24 -15 -43 -31 -43 -35 0 -5 5 -5 10 -2 6 4 17 1 25 -5
12 -10 15 -39 15 -126 0 -105 -1 -114 -22 -130 -13 -9 -16 -14 -7 -11 10 3 32
-7 52 -24 l37 -30 45 26 c47 28 72 54 40 42 -37 -15 -45 9 -45 132 0 80 4 121
13 130 10 10 9 11 -4 6 -11 -4 -24 4 -39 24 -12 17 -24 31 -28 31 -4 0 -26
-13 -49 -28z"/>
<path d="M4983 549 c-24 -17 -43 -32 -43 -35 0 -3 5 -2 11 1 5 4 19 -1 30 -11
16 -15 19 -31 19 -124 0 -68 -4 -110 -12 -118 -9 -9 -7 -16 8 -33 38 -42 53
-44 90 -8 30 29 32 34 19 49 -11 13 -15 43 -15 127 0 94 3 112 17 117 10 4 25
-2 40 -15 21 -21 23 -31 23 -119 0 -61 -4 -100 -12 -108 -9 -9 -5 -19 17 -42
36 -37 46 -37 87 -1 31 28 32 30 15 48 -24 27 -25 214 -2 233 13 11 20 9 40
-10 23 -22 25 -30 25 -126 0 -63 -4 -105 -11 -110 -11 -6 47 -74 63 -74 5 0
32 16 61 36 29 19 45 34 37 33 -8 -1 -23 1 -32 5 -16 7 -18 23 -18 124 0 95 3
119 18 136 15 19 15 19 0 7 -15 -11 -23 -8 -58 20 l-40 33 -45 -32 c-25 -18
-49 -32 -53 -32 -5 0 -21 14 -37 30 -16 17 -33 30 -38 30 -5 0 -27 -14 -49
-31 l-39 -32 -33 32 c-17 17 -34 31 -36 31 -3 -1 -24 -14 -47 -31z"/>
<path d="M5605 536 l-80 -44 0 -112 0 -113 57 -40 57 -40 76 58 c42 32 73 60
71 63 -3 2 -22 -9 -43 -26 l-39 -30 -42 31 c-60 46 -56 64 28 121 39 27 73 53
76 58 6 10 -61 118 -74 118 -4 0 -43 -20 -87 -44z m62 -65 l31 -50 -39 -25
-39 -26 0 80 c0 45 4 79 8 76 5 -3 22 -27 39 -55z"/>
</g>
</svg>
