<?xml version="1.0" standalone="no"?>
<!DOCTYPE svg PUBLIC "-//W3C//DTD SVG 20010904//EN"
 "http://www.w3.org/TR/2001/REC-SVG-20010904/DTD/svg10.dtd">
<svg version="1.0" xmlns="http://www.w3.org/2000/svg"
 width="428.000000pt" height="80.000000pt" viewBox="0 0 428.000000 80.000000"
 preserveAspectRatio="xMidYMid meet">

<g transform="translate(0.000000,80.000000) scale(0.100000,-0.100000)"
fill="#000000" stroke="none">
<path d="M1448 598 c-56 -15 -98 -68 -98 -122 0 -60 26 -89 110 -121 60 -23
70 -30 70 -51 0 -47 -63 -55 -121 -14 l-26 19 -27 -37 -27 -37 28 -22 c40 -33
122 -48 182 -33 70 17 103 55 109 124 4 50 2 58 -24 84 -16 16 -51 37 -79 47
-62 23 -75 33 -75 56 0 28 66 30 104 4 18 -13 22 -11 43 20 30 44 29 50 -9 68
-45 21 -116 28 -160 15z"/>
<path d="M2652 596 c-103 -34 -157 -113 -150 -221 5 -82 41 -138 112 -174 91
-47 220 -29 282 41 97 106 68 274 -58 339 -50 25 -133 32 -186 15z m149 -125
c25 -25 29 -37 29 -81 0 -44 -4 -56 -29 -81 -23 -23 -38 -29 -71 -29 -52 0
-76 13 -95 50 -19 37 -19 83 0 120 20 38 41 49 93 50 35 0 49 -6 73 -29z"/>
<path d="M930 437 c0 -154 1 -166 23 -198 62 -93 266 -86 322 11 17 31 20 53
20 190 l0 155 -57 3 -58 3 0 -133 c0 -159 -8 -182 -64 -186 -21 -2 -44 2 -50
8 -7 6 -13 70 -16 158 l-5 147 -57 3 -58 3 0 -164z"/>
<path d="M1743 408 c-39 -106 -75 -201 -78 -210 -6 -16 0 -18 53 -18 58 0 60
1 71 30 10 30 10 30 90 30 79 0 79 0 90 -30 10 -29 12 -30 70 -30 l60 0 -33
93 c-19 50 -54 144 -77 207 l-44 115 -65 3 -65 3 -72 -193z m162 -1 c9 -37 16
-69 14 -70 -2 -1 -22 0 -45 3 l-41 5 21 72 c11 40 23 69 27 65 3 -4 14 -38 24
-75z"/>
<path d="M2160 550 l0 -50 55 0 55 0 0 -160 0 -161 56 3 56 3 -1 158 -2 157
56 0 55 0 0 50 0 50 -165 0 -165 0 0 -50z"/>
<path d="M3000 389 l0 -211 118 4 c94 4 125 9 158 26 57 29 90 72 103 132 25
118 -38 225 -147 249 -29 6 -93 11 -142 11 l-90 0 0 -211z m231 82 c25 -25 29
-37 29 -81 0 -44 -4 -56 -29 -81 -23 -23 -39 -29 -70 -29 l-41 0 0 110 0 110
41 0 c31 0 47 -6 70 -29z"/>
<path d="M3514 564 c-8 -20 -30 -77 -48 -127 -19 -51 -48 -129 -65 -175 l-31
-83 62 3 c57 3 63 5 68 28 6 24 10 25 87 28 l81 3 10 -31 c11 -29 13 -30 73
-30 45 0 60 3 56 13 -2 6 -37 101 -77 210 l-73 197 -64 0 c-64 0 -64 0 -79
-36z m86 -92 c0 -11 9 -44 19 -75 l20 -57 -49 0 -49 0 20 57 c10 31 19 64 19
75 0 10 5 18 10 18 6 0 10 -8 10 -18z"/>
<path d="M3810 463 c80 -138 80 -138 80 -210 l0 -73 60 0 60 0 0 73 c0 71 1
73 75 202 41 72 75 133 75 138 0 4 -27 7 -60 7 l-60 0 -42 -85 c-23 -47 -45
-85 -48 -84 -3 0 -23 37 -45 82 l-40 82 -67 3 -68 3 80 -138z"/>
<path d="M4075 230 c3 -5 8 -10 11 -10 2 0 4 5 4 10 0 6 -5 10 -11 10 -5 0 -7
-4 -4 -10z"/>
<path d="M4110 220 c0 -5 5 -10 11 -10 5 0 7 5 4 10 -3 6 -8 10 -11 10 -2 0
-4 -4 -4 -10z"/>
</g>
</svg>
